<svg xmlns="http://www.w3.org/2000/svg" xmlns:xlink="http://www.w3.org/1999/xlink" width="105" height="105" viewBox="0 0 105 105" fill="none"><defs><filter id="filter_2" x="-4" y="-4" width="113" height="113" filterUnits="userSpaceOnUse" color-interpolation-filters="sRGB"><feFlood flood-opacity="0" result="BackgroundImageFix"/>
          <feColorMatrix in="SourceAlpha" type="matrix" values="0 0 0 0 0 0 0 0 0 0 0 0 0 0 0 0 0 0 127 0"/>
          <feOffset dx="0" dy="2"/>
          <feGaussianBlur stdDeviation="2"/>
          <feColorMatrix type="matrix" values="0 0 0 0 0 0 0 0 0 0 0 0 0 0 0 0 0 0 0.25 0"/>
          <feBlend mode="normal" in2="BackgroundImageFix" result="effect1_Shadow"/>
          <feBlend mode="normal" in="SourceGraphic" in2="effect1_Shadow" result="shape"/></filter><rect id="path_0" x="0" y="0" width="105" height="105" /></defs><g opacity="1" transform="translate(0 0)  rotate(0 52.5 52.5)"><g opacity="1" transform="translate(0 0)  rotate(0 52.5 52.5)"><g id="undefined" filter="url(#filter_2)"></g><mask id="bg-mask-0" fill="white"><use xlink:href="#path_0"></use></mask><g mask="url(#bg-mask-0)" ><g opacity="1" transform="translate(6.521309936367743 0.204280366050682)  rotate(0 45.97869006363203 47.89785981697466)"><g opacity="1" transform="translate(30.95738012726406 76.79571963394932)  rotate(0 13 9.5)"><text><tspan x="0" y="14.84375" font-size="16" line-height="0" fill="#FAFAFA" opacity="1" font-family="Roboto-Bold" letter-spacing="0.8" >the</tspan></text></g><g opacity="1" transform="translate(55.95738012726406 76.79571963394932)  rotate(0 18 9.5)"><text><tspan x="0" y="14.84375" font-size="16" line-height="0" fill="#F48023" opacity="1" font-family="Roboto-Bold" letter-spacing="0.8" >Ride</tspan></text></g><g opacity="1" transform="translate(0 0)  rotate(0 45.95473096343739 45.92236757635673)"><path id="路径 1" fill-rule="evenodd" style="fill:#E5E5E5" transform="translate(64.62610197551291 0)  rotate(0 13.641679975680935 13.513942247900388)" opacity="1" d="M14.9,0.48C13.96,0.2 12.98,0.04 11.97,0.01C10.96,-0.03 9.93,0.11 8.89,0.43C7.84,0.74 6.83,1.28 5.85,2.05C5.09,2.68 4.13,3.54 2.98,4.62C1.83,5.71 0.84,6.63 0,7.4L19.55,27.03C20.04,26.61 20.56,26.12 21.12,25.56C21.6,25.07 22.18,24.51 22.84,23.88C23.5,23.25 24.25,22.52 25.09,21.68C25.85,20.84 26.41,19.96 26.76,19.05C27.11,18.14 27.28,17.23 27.28,16.32C27.28,15.41 27.2,14.54 27.02,13.7C26.85,12.86 26.62,12.13 26.34,11.5C25.37,9.4 23.99,7.39 22.21,5.46C20.44,3.54 18.82,2.19 17.35,1.42C16.66,1.07 15.84,0.76 14.9,0.48Z " /><path id="路径 2" fill-rule="evenodd" style="fill:#E5E5E5" transform="translate(0 15.16940649287111)  rotate(0 38.16695200186208 38.337664329921175)" opacity="1" d="M45.5,50.79L53.86,42.29L76.33,19.73L56.79,0L34.31,22.56L25.84,31.06L18.21,38.72C15.91,41.03 14,42.97 12.46,44.55C10.93,46.12 9.95,47.12 9.54,47.54C8.56,48.52 7.81,49.41 7.29,50.21C6.77,51.02 6.3,51.91 5.88,52.89C5.53,53.52 5.08,54.67 4.52,56.35C3.96,58.03 3.39,59.87 2.79,61.86C2.2,63.86 1.64,65.78 1.12,67.64C0.6,69.49 0.27,70.91 0.13,71.89C-0.15,73.7 0.02,75 0.65,75.77C1.28,76.54 2.53,76.82 4.41,76.61C5.32,76.47 6.7,76.15 8.54,75.66C10.39,75.17 12.34,74.6 14.4,73.93C16.45,73.27 18.42,72.59 20.3,71.89C22.19,71.19 23.61,70.59 24.59,70.1C25.57,69.68 26.51,69.12 27.41,68.42C28.32,67.72 29.12,67.06 29.82,66.43C30.1,66.22 30.97,65.38 32.43,63.91C33.89,62.44 35.74,60.57 37.97,58.3C40.2,56.02 42.71,53.52 45.5,50.79Z " /></g></g></g></g></g></svg>